<svg width="837" height="152" viewBox="0 0 837 152" fill="none" xmlns="http://www.w3.org/2000/svg">
<path opacity="0.58" d="M636.822 72.3842L644.901 72.3842L644.901 80.4634L652.938 80.4634L652.938 72.3842L661.016 72.3842L661.016 64.3475L652.938 64.3475L652.938 56.2694L644.901 56.2694L644.901 64.3475L636.822 64.3475L636.822 72.3842Z" fill="#9AC0FE"/>
<path opacity="0.88" d="M745.006 124.012L768.57 124.012L768.57 147.576L792.012 147.576L792.012 124.012L815.575 124.012L815.575 100.571L792.012 100.571L792.012 77.007L768.57 77.007L768.57 100.571L745.006 100.571L745.006 124.012Z" fill="#9AC0FE"/>
<path opacity="0.25" d="M595.258 160.665L612.658 160.665L612.658 178.065L629.967 178.065L629.967 160.665L647.366 160.665L647.366 143.356L629.967 143.356L629.967 125.957L612.658 125.957L612.658 143.356L595.258 143.356L595.258 160.665Z" fill="#9AC0FE"/>
<path opacity="0.98" d="M517.38 113.211L536.666 113.211L536.666 132.497L555.852 132.497L555.852 113.211L575.138 113.211L575.138 94.0239L555.852 94.0239L555.852 74.7381L536.666 74.7381L536.666 94.0239L517.38 94.0239L517.38 113.211Z" fill="#9AC0FE"/>
<path opacity="0.5" d="M530.617 26.4424L554.476 26.4424L554.476 50.301L578.211 50.301L578.211 26.4424L602.071 26.4424L602.071 2.70684L578.211 2.70684L578.211 -21.1529L554.476 -21.1529L554.476 2.70684L530.617 2.70684L530.617 26.4424Z" fill="#9AC0FE"/>
<path opacity="0.21" d="M714.988 94.4441L727.885 94.4441L727.885 107.34L740.716 107.34L740.716 94.4441L753.613 94.4441L753.613 81.6138L740.716 81.6138L740.716 68.7166L727.885 68.7166L727.885 81.6138L714.988 81.6138L714.988 94.4441Z" fill="#9AC0FE"/>
<path opacity="0.9" d="M628.186 28.1743L657.22 28.1743L657.22 57.2086L686.105 57.2086L686.105 28.1743L715.139 28.1743L715.139 -0.709267L686.105 -0.709265L686.105 -29.7435L657.22 -29.7435L657.22 -0.709264L628.186 -0.709263L628.186 28.1743Z" fill="#9AC0FE"/>
<path opacity="0.26" d="M813.729 145.82L819.952 145.82L819.952 152.044L826.143 152.044L826.143 145.82L832.366 145.82L832.366 139.629L826.143 139.629L826.143 133.406L819.952 133.406L819.952 139.629L813.729 139.629L813.729 145.82Z" fill="#9AC0FE"/>
<path opacity="0.39" d="M762.117 88.9044L799.491 88.9044L799.491 126.279L836.672 126.279L836.671 88.9044L874.046 88.9044L874.046 51.7241L836.671 51.7241L836.671 14.3496L799.491 14.3496L799.491 51.7241L762.117 51.7241L762.117 88.9044Z" fill="#9AC0FE"/>
<path opacity="0.59" d="M588.93 105.841L604.973 105.841L604.973 121.883L620.933 121.883L620.933 105.841L636.977 105.841L636.977 89.8808L620.933 89.8808L620.933 73.8371L604.973 73.8371L604.973 89.8808L588.93 89.8808L588.93 105.841Z" fill="#9AC0FE"/>
<path opacity="0.32" d="M705.204 16.6122L727.126 16.6122L727.126 38.5341L748.934 38.5341L748.934 16.6122L770.856 16.6122L770.856 -5.19615L748.934 -5.19615L748.934 -27.1181L727.126 -27.1181L727.126 -5.19615L705.204 -5.19615L705.204 16.6122Z" fill="#9AC0FE"/>
<path opacity="0.3" d="M747.119 34.6393L778.348 34.6393L778.348 65.8683L809.416 65.8683L809.416 34.6393L840.645 34.6393L840.645 3.57174L809.416 3.57174L809.416 -27.6572L778.348 -27.6572L778.348 3.57174L747.119 3.57174L747.119 34.6393Z" fill="#9AC0FE"/>
<path opacity="0.45" d="M457.629 143.572L477.887 143.572L477.887 163.83L498.04 163.83L498.04 143.572L518.298 143.572L518.298 123.418L498.04 123.418L498.04 103.16L477.887 103.16L477.887 123.418L457.629 123.418L457.629 143.572Z" fill="#9AC0FE"/>
<path opacity="0.88" d="M425 204.666L456.268 204.666L456.268 235.934L487.374 235.934L487.374 204.666L518.642 204.666L518.642 173.56L487.374 173.56L487.374 142.292L456.268 142.292L456.268 173.56L425 173.56L425 204.666Z" fill="#9AC0FE"/>
<path opacity="0.28" d="M582.913 54.598L594.613 54.598L594.613 66.2981L606.252 66.2981L606.252 54.598L617.951 54.598L617.951 42.9594L606.252 42.9594L606.252 31.2593L594.613 31.2593L594.613 42.9594L582.913 42.9594L582.913 54.598Z" fill="#9AC0FE"/>
<path opacity="0.93" d="M440.929 114.814L445.275 114.814L445.275 119.16L449.598 119.16L449.598 114.814L453.944 114.814L453.944 110.492L449.598 110.492L449.598 106.146L445.275 106.146L445.275 110.492L440.929 110.492L440.929 114.814Z" fill="#9AC0FE"/>
<path opacity="0.53" d="M521.242 192.22L548.002 192.22L548.002 218.981L574.625 218.981L574.625 192.22L601.385 192.22L601.385 165.598L574.625 165.598L574.625 138.838L548.002 138.838L548.002 165.598L521.242 165.598L521.242 192.22Z" fill="#9AC0FE"/>
<path opacity="0.89" d="M632.965 136.79L668.412 136.79L668.412 172.237L703.675 172.237L703.675 136.79L739.122 136.79L739.122 101.527L703.675 101.527L703.675 66.0794L668.412 66.0794L668.412 101.527L632.965 101.527L632.965 136.79Z" fill="#9AC0FE"/>
<path opacity="0.58" d="M275 70.1148L283.079 70.1148L283.079 78.194L291.116 78.194L291.116 70.1148L299.194 70.1148L299.194 62.0781L291.116 62.0781L291.116 54L283.079 54L283.079 62.0781L275 62.0781L275 70.1148Z" fill="#9AC0FE"/>
<path opacity="0.88" d="M320.006 138.012L343.57 138.012L343.57 161.576L367.012 161.576L367.012 138.012L390.575 138.012L390.575 114.571L367.012 114.571L367.012 91.0069L343.57 91.0069L343.57 114.571L320.006 114.571L320.006 138.012Z" fill="#9AC0FE"/>
<path opacity="0.25" d="M170.258 174.665L187.658 174.665L187.658 192.065L204.967 192.065L204.967 174.665L222.365 174.665L222.365 157.356L204.967 157.356L204.967 139.957L187.658 139.957L187.658 157.356L170.258 157.356L170.258 174.665Z" fill="#9AC0FE"/>
<path opacity="0.5" d="M105.617 40.4424L129.476 40.4424L129.476 64.301L153.211 64.301L153.211 40.4424L177.071 40.4424L177.071 16.7068L153.211 16.7068L153.211 -7.15286L129.476 -7.15286L129.476 16.7068L105.617 16.7068L105.617 40.4424Z" fill="#9AC0FE"/>
<path opacity="0.21" d="M289.988 108.444L302.885 108.444L302.885 121.34L315.716 121.34L315.716 108.444L328.613 108.444L328.613 95.6137L315.716 95.6137L315.716 82.7166L302.885 82.7166L302.885 95.6137L289.988 95.6137L289.988 108.444Z" fill="#9AC0FE"/>
<path opacity="0.27" d="M450.68 124.083L456.442 124.083L456.442 129.844L462.172 129.844L462.172 124.083L467.933 124.083L467.933 118.353L462.172 118.353L462.172 112.592L456.442 112.592L456.442 118.353L450.68 118.353L450.68 124.083Z" fill="#9AC0FE"/>
<path opacity="0.9" d="M193 50.9179L222.034 50.9179L222.034 79.9521L250.919 79.9521L250.919 50.9179L279.953 50.9179L279.953 22.0343L250.919 22.0343L250.919 -7L222.034 -7L222.034 22.0343L193 22.0343L193 50.9179Z" fill="#9AC0FE"/>
<path opacity="0.26" d="M388.729 159.82L394.952 159.82L394.952 166.044L401.143 166.044L401.143 159.82L407.366 159.82L407.366 153.629L401.143 153.629L401.143 147.406L394.952 147.406L394.952 153.629L388.729 153.629L388.729 159.82Z" fill="#9AC0FE"/>
<path opacity="0.39" d="M351 80.5548L388.375 80.5548L388.375 117.929L425.555 117.929L425.555 80.5548L462.929 80.5548L462.929 43.3745L425.555 43.3745L425.555 6L388.375 6.00001L388.375 43.3745L351 43.3745L351 80.5548Z" fill="#9AC0FE"/>
<path opacity="0.59" d="M163.93 119.841L179.973 119.841L179.973 135.883L195.933 135.883L195.933 119.841L211.977 119.841L211.977 103.881L195.933 103.881L195.933 87.8371L179.973 87.8371L179.973 103.881L163.93 103.881L163.93 119.841Z" fill="#9AC0FE"/>
<path opacity="0.32" d="M280.204 30.6122L302.126 30.6122L302.126 52.5341L323.934 52.5341L323.934 30.6122L345.856 30.6122L345.856 8.80385L323.934 8.80385L323.934 -13.1181L302.126 -13.1181L302.126 8.80385L280.204 8.80385L280.204 30.6122Z" fill="#9AC0FE"/>
<path opacity="0.4" d="M508.196 97.8615L513.603 97.8615L513.603 103.267L518.981 103.267L518.981 97.8615L524.388 97.8615L524.388 92.4821L518.981 92.4821L518.981 87.0751L513.603 87.0751L513.603 92.4821L508.196 92.4821L508.196 97.8615Z" fill="#9AC0FE"/>
<path opacity="0.28" d="M157.913 68.598L169.613 68.598L169.613 80.298L181.252 80.298L181.252 68.598L192.951 68.598L192.951 56.9594L181.252 56.9594L181.252 45.2593L169.613 45.2593L169.613 56.9594L157.913 56.9594L157.913 68.598Z" fill="#9AC0FE"/>
<path opacity="0.91" d="M468 61.7096L488.909 61.7096L488.909 82.6181L509.71 82.6181L509.71 61.7096L530.619 61.7096L530.619 40.9084L509.71 40.9084L509.71 20L488.909 20L488.909 40.9084L468 40.9084L468 61.7096Z" fill="#9AC0FE"/>
<path opacity="0.89" d="M207.965 150.79L243.412 150.79L243.412 186.237L278.675 186.237L278.675 150.79L314.122 150.79L314.122 115.527L278.675 115.527L278.675 80.0794L243.412 80.0794L243.412 115.527L207.965 115.527L207.965 150.79Z" fill="#9AC0FE"/>
</svg>
